<svg width="970" height="400" viewBox="0 0 970 400" fill="none" xmlns="http://www.w3.org/2000/svg">
<rect width="970" height="400" rx="6" fill="#161B22"/>
<path d="M23.548 26.762H24.99V27.812H23.548V32.306C23.548 32.446 23.5573 32.558 23.576 32.642C23.604 32.726 23.6507 32.7913 23.716 32.838C23.7813 32.8847 23.87 32.9173 23.982 32.936C24.1033 32.9453 24.2573 32.95 24.444 32.95H24.99V34H24.08C23.772 34 23.506 33.9813 23.282 33.944C23.0673 33.8973 22.89 33.818 22.75 33.706C22.6193 33.594 22.5213 33.4353 22.456 33.23C22.3907 33.0247 22.358 32.754 22.358 32.418V27.812H21.126V26.762H22.358V24.592H23.548V26.762ZM26.312 24.004H27.502V27.826H27.53C27.6233 27.602 27.754 27.4153 27.922 27.266C28.09 27.1073 28.2767 26.9813 28.482 26.888C28.6967 26.7853 28.916 26.7107 29.14 26.664C29.3733 26.6173 29.5973 26.594 29.812 26.594C30.288 26.594 30.6847 26.6593 31.002 26.79C31.3193 26.9207 31.576 27.1027 31.772 27.336C31.968 27.5693 32.1033 27.8493 32.178 28.176C32.262 28.4933 32.304 28.848 32.304 29.24V34H31.114V29.1C31.114 28.652 30.9833 28.2973 30.722 28.036C30.4607 27.7747 30.1013 27.644 29.644 27.644C29.28 27.644 28.9627 27.7 28.692 27.812C28.4307 27.924 28.2113 28.0827 28.034 28.288C27.8567 28.4933 27.7213 28.736 27.628 29.016C27.544 29.2867 27.502 29.5853 27.502 29.912V34H26.312V24.004ZM39.1173 29.688C39.0986 29.408 39.0333 29.142 38.9213 28.89C38.8186 28.638 38.674 28.4233 38.4873 28.246C38.31 28.0593 38.0953 27.9147 37.8433 27.812C37.6006 27.7 37.33 27.644 37.0313 27.644C36.7233 27.644 36.4433 27.7 36.1913 27.812C35.9486 27.9147 35.7386 28.0593 35.5613 28.246C35.384 28.4327 35.244 28.652 35.1413 28.904C35.0386 29.1467 34.978 29.408 34.9593 29.688H39.1173ZM40.2653 31.704C40.1066 32.516 39.7566 33.1273 39.2153 33.538C38.674 33.9487 37.9926 34.154 37.1713 34.154C36.5926 34.154 36.0886 34.0607 35.6593 33.874C35.2393 33.6873 34.8846 33.426 34.5953 33.09C34.306 32.754 34.0866 32.3527 33.9373 31.886C33.7973 31.4193 33.718 30.9107 33.6993 30.36C33.6993 29.8093 33.7833 29.3053 33.9513 28.848C34.1193 28.3907 34.3526 27.994 34.6513 27.658C34.9593 27.322 35.3186 27.0607 35.7293 26.874C36.1493 26.6873 36.6066 26.594 37.1013 26.594C37.7453 26.594 38.2773 26.7293 38.6973 27C39.1266 27.2613 39.4673 27.5973 39.7193 28.008C39.9806 28.4187 40.158 28.8667 40.2513 29.352C40.354 29.8373 40.396 30.2993 40.3773 30.738H34.9593C34.95 31.0553 34.9873 31.3587 35.0713 31.648C35.1553 31.928 35.2906 32.18 35.4773 32.404C35.664 32.6187 35.902 32.7913 36.1913 32.922C36.4806 33.0527 36.8213 33.118 37.2133 33.118C37.7173 33.118 38.128 33.0013 38.4453 32.768C38.772 32.5347 38.9866 32.18 39.0893 31.704H40.2653ZM46.4733 29.002C46.4733 29.506 46.5387 30.0053 46.6693 30.5C46.8 30.9853 47.0053 31.424 47.2853 31.816C47.5653 32.208 47.9247 32.5253 48.3633 32.768C48.802 33.0013 49.3247 33.118 49.9313 33.118C50.538 33.118 51.0607 33.0013 51.4993 32.768C51.938 32.5253 52.2973 32.208 52.5773 31.816C52.8573 31.424 53.0627 30.9853 53.1933 30.5C53.324 30.0053 53.3893 29.506 53.3893 29.002C53.3893 28.498 53.324 28.0033 53.1933 27.518C53.0627 27.0233 52.8573 26.58 52.5773 26.188C52.2973 25.796 51.938 25.4833 51.4993 25.25C51.0607 25.0073 50.538 24.886 49.9313 24.886C49.3247 24.886 48.802 25.0073 48.3633 25.25C47.9247 25.4833 47.5653 25.796 47.2853 26.188C47.0053 26.58 46.8 27.0233 46.6693 27.518C46.5387 28.0033 46.4733 28.498 46.4733 29.002ZM45.1433 29.002C45.1433 28.3207 45.2413 27.6673 45.4373 27.042C45.6427 26.4073 45.946 25.8473 46.3473 25.362C46.7487 24.8767 47.248 24.4893 47.8453 24.2C48.4427 23.9107 49.138 23.766 49.9313 23.766C50.7247 23.766 51.42 23.9107 52.0173 24.2C52.6147 24.4893 53.114 24.8767 53.5153 25.362C53.9167 25.8473 54.2153 26.4073 54.4113 27.042C54.6167 27.6673 54.7193 28.3207 54.7193 29.002C54.7193 29.6833 54.6167 30.3413 54.4113 30.976C54.2153 31.6013 53.9167 32.1567 53.5153 32.642C53.114 33.1273 52.6147 33.5147 52.0173 33.804C51.42 34.084 50.7247 34.224 49.9313 34.224C49.138 34.224 48.4427 34.084 47.8453 33.804C47.248 33.5147 46.7487 33.1273 46.3473 32.642C45.946 32.1567 45.6427 31.6013 45.4373 30.976C45.2413 30.3413 45.1433 29.6833 45.1433 29.002ZM56.144 26.762H57.264V27.826H57.292C57.8334 27.0047 58.6127 26.594 59.63 26.594C60.078 26.594 60.484 26.6873 60.848 26.874C61.212 27.0607 61.4687 27.378 61.618 27.826C61.8607 27.434 62.178 27.1307 62.57 26.916C62.9714 26.7013 63.41 26.594 63.886 26.594C64.25 26.594 64.5767 26.636 64.866 26.72C65.1647 26.7947 65.4167 26.916 65.622 27.084C65.8367 27.252 66 27.4713 66.112 27.742C66.2334 28.0033 66.294 28.3207 66.294 28.694V34H65.104V29.254C65.104 29.03 65.0854 28.82 65.048 28.624C65.0107 28.428 64.9407 28.26 64.838 28.12C64.7354 27.9707 64.5907 27.854 64.404 27.77C64.2267 27.686 63.9934 27.644 63.704 27.644C63.116 27.644 62.654 27.812 62.318 28.148C61.982 28.484 61.814 28.932 61.814 29.492V34H60.624V29.254C60.624 29.0207 60.6007 28.806 60.554 28.61C60.5167 28.414 60.4467 28.246 60.344 28.106C60.2414 27.9567 60.1014 27.8447 59.924 27.77C59.756 27.686 59.5367 27.644 59.266 27.644C58.9207 27.644 58.622 27.714 58.37 27.854C58.1274 27.994 57.9267 28.162 57.768 28.358C57.6187 28.554 57.5067 28.7593 57.432 28.974C57.3667 29.1793 57.334 29.352 57.334 29.492V34H56.144V26.762ZM68.0796 26.762H69.1996V27.91H69.2276C69.7223 27.0327 70.5063 26.594 71.5796 26.594C72.0556 26.594 72.4523 26.6593 72.7696 26.79C73.0869 26.9207 73.3436 27.1027 73.5396 27.336C73.7356 27.5693 73.8709 27.8493 73.9456 28.176C74.0296 28.4933 74.0716 28.848 74.0716 29.24V34H72.8816V29.1C72.8816 28.652 72.7509 28.2973 72.4896 28.036C72.2283 27.7747 71.8689 27.644 71.4116 27.644C71.0476 27.644 70.7303 27.7 70.4596 27.812C70.1983 27.924 69.9789 28.0827 69.8016 28.288C69.6243 28.4933 69.4889 28.736 69.3956 29.016C69.3116 29.2867 69.2696 29.5853 69.2696 29.912V34H68.0796V26.762ZM77.1189 25.46H75.9289V24.004H77.1189V25.46ZM75.9289 26.762H77.1189V34H75.9289V26.762ZM79.0044 26.762H80.1944V27.742H80.2224C80.4184 27.3407 80.7264 27.0513 81.1464 26.874C81.5664 26.6873 82.0284 26.594 82.5324 26.594C83.0924 26.594 83.5777 26.6967 83.9884 26.902C84.4084 27.1073 84.7537 27.3873 85.0244 27.742C85.3044 28.0873 85.5144 28.4887 85.6544 28.946C85.7944 29.4033 85.8644 29.8887 85.8644 30.402C85.8644 30.9153 85.7944 31.4007 85.6544 31.858C85.5237 32.3153 85.3184 32.7167 85.0384 33.062C84.7677 33.398 84.4224 33.664 84.0024 33.86C83.5917 34.056 83.1111 34.154 82.5604 34.154C82.3831 34.154 82.1824 34.1353 81.9584 34.098C81.7437 34.0607 81.5291 34 81.3144 33.916C81.0997 33.832 80.8944 33.72 80.6984 33.58C80.5117 33.4307 80.3531 33.2487 80.2224 33.034H80.1944V36.758H79.0044V26.762ZM84.6044 30.318C84.6044 29.982 84.5577 29.6553 84.4644 29.338C84.3804 29.0113 84.2451 28.722 84.0584 28.47C83.8811 28.218 83.6477 28.0173 83.3584 27.868C83.0784 27.7187 82.7471 27.644 82.3644 27.644C81.9631 27.644 81.6224 27.7233 81.3424 27.882C81.0624 28.0407 80.8337 28.2507 80.6564 28.512C80.4791 28.764 80.3484 29.0533 80.2644 29.38C80.1897 29.7067 80.1524 30.038 80.1524 30.374C80.1524 30.7287 80.1944 31.074 80.2784 31.41C80.3624 31.7367 80.4931 32.026 80.6704 32.278C80.8571 32.53 81.0951 32.7353 81.3844 32.894C81.6737 33.0433 82.0237 33.118 82.4344 33.118C82.8451 33.118 83.1857 33.0387 83.4564 32.88C83.7364 32.7213 83.9604 32.5113 84.1284 32.25C84.2964 31.9887 84.4177 31.69 84.4924 31.354C84.5671 31.018 84.6044 30.6727 84.6044 30.318ZM87.2192 26.762H88.3392V28.288H88.3672C88.6566 27.7 89.0112 27.266 89.4312 26.986C89.8512 26.706 90.3832 26.5753 91.0272 26.594V27.854C90.5512 27.854 90.1452 27.9193 89.8092 28.05C89.4732 28.1807 89.2026 28.372 88.9972 28.624C88.7919 28.876 88.6426 29.184 88.5492 29.548C88.4559 29.9027 88.4092 30.3133 88.4092 30.78V34H87.2192V26.762ZM96.7033 29.688C96.6846 29.408 96.6193 29.142 96.5073 28.89C96.4046 28.638 96.2599 28.4233 96.0733 28.246C95.8959 28.0593 95.6813 27.9147 95.4293 27.812C95.1866 27.7 94.9159 27.644 94.6173 27.644C94.3093 27.644 94.0293 27.7 93.7773 27.812C93.5346 27.9147 93.3246 28.0593 93.1473 28.246C92.9699 28.4327 92.8299 28.652 92.7273 28.904C92.6246 29.1467 92.5639 29.408 92.5453 29.688H96.7033ZM97.8512 31.704C97.6926 32.516 97.3426 33.1273 96.8013 33.538C96.2599 33.9487 95.5786 34.154 94.7573 34.154C94.1786 34.154 93.6746 34.0607 93.2453 33.874C92.8253 33.6873 92.4706 33.426 92.1813 33.09C91.8919 32.754 91.6726 32.3527 91.5233 31.886C91.3833 31.4193 91.3039 30.9107 91.2853 30.36C91.2853 29.8093 91.3693 29.3053 91.5373 28.848C91.7053 28.3907 91.9386 27.994 92.2373 27.658C92.5453 27.322 92.9046 27.0607 93.3153 26.874C93.7353 26.6873 94.1926 26.594 94.6873 26.594C95.3313 26.594 95.8633 26.7293 96.2833 27C96.7126 27.2613 97.0533 27.5973 97.3053 28.008C97.5666 28.4187 97.7439 28.8667 97.8373 29.352C97.9399 29.8373 97.9819 30.2993 97.9633 30.738H92.5453C92.5359 31.0553 92.5733 31.3587 92.6573 31.648C92.7413 31.928 92.8766 32.18 93.0633 32.404C93.2499 32.6187 93.4879 32.7913 93.7773 32.922C94.0666 33.0527 94.4073 33.118 94.7993 33.118C95.3033 33.118 95.7139 33.0013 96.0313 32.768C96.3579 32.5347 96.5726 32.18 96.6753 31.704H97.8512ZM99.9248 31.718C99.9341 31.9793 99.9948 32.2033 100.107 32.39C100.219 32.5673 100.363 32.712 100.541 32.824C100.727 32.9267 100.933 33.0013 101.157 33.048C101.39 33.0947 101.628 33.118 101.871 33.118C102.057 33.118 102.253 33.104 102.459 33.076C102.664 33.048 102.851 32.9967 103.019 32.922C103.196 32.8473 103.341 32.74 103.453 32.6C103.565 32.4507 103.621 32.264 103.621 32.04C103.621 31.732 103.504 31.4987 103.271 31.34C103.037 31.1813 102.743 31.0553 102.389 30.962C102.043 30.8593 101.665 30.7707 101.255 30.696C100.844 30.612 100.461 30.5 100.107 30.36C99.7614 30.2107 99.4721 30.0053 99.2388 29.744C99.0054 29.4827 98.8888 29.1187 98.8888 28.652C98.8888 28.288 98.9681 27.9753 99.1268 27.714C99.2948 27.4527 99.5048 27.2427 99.7568 27.084C100.018 26.916 100.307 26.7947 100.625 26.72C100.951 26.636 101.273 26.594 101.591 26.594C102.001 26.594 102.379 26.6313 102.725 26.706C103.07 26.7713 103.373 26.8927 103.635 27.07C103.905 27.238 104.12 27.4713 104.279 27.77C104.437 28.0593 104.531 28.4233 104.559 28.862H103.369C103.35 28.6287 103.289 28.4373 103.187 28.288C103.084 28.1293 102.953 28.0033 102.795 27.91C102.636 27.8167 102.459 27.7513 102.263 27.714C102.076 27.6673 101.885 27.644 101.689 27.644C101.511 27.644 101.329 27.658 101.143 27.686C100.965 27.714 100.802 27.7653 100.653 27.84C100.503 27.9053 100.382 27.9987 100.289 28.12C100.195 28.232 100.149 28.3813 100.149 28.568C100.149 28.7733 100.219 28.946 100.359 29.086C100.508 29.2167 100.695 29.3287 100.919 29.422C101.143 29.506 101.395 29.5807 101.675 29.646C101.955 29.702 102.235 29.7627 102.515 29.828C102.813 29.8933 103.103 29.9727 103.383 30.066C103.672 30.1593 103.924 30.2853 104.139 30.444C104.363 30.5933 104.54 30.7847 104.671 31.018C104.811 31.2513 104.881 31.5407 104.881 31.886C104.881 32.3247 104.787 32.6887 104.601 32.978C104.423 33.2673 104.185 33.5007 103.887 33.678C103.597 33.8553 103.266 33.9767 102.893 34.042C102.529 34.1167 102.165 34.154 101.801 34.154C101.399 34.154 101.017 34.112 100.653 34.028C100.289 33.944 99.9668 33.8087 99.6868 33.622C99.4068 33.426 99.1828 33.174 99.0148 32.866C98.8468 32.5487 98.7534 32.166 98.7348 31.718H99.9248ZM111.223 29.688C111.204 29.408 111.139 29.142 111.027 28.89C110.924 28.638 110.779 28.4233 110.593 28.246C110.415 28.0593 110.201 27.9147 109.949 27.812C109.706 27.7 109.435 27.644 109.137 27.644C108.829 27.644 108.549 27.7 108.297 27.812C108.054 27.9147 107.844 28.0593 107.667 28.246C107.489 28.4327 107.349 28.652 107.247 28.904C107.144 29.1467 107.083 29.408 107.065 29.688H111.223ZM112.371 31.704C112.212 32.516 111.862 33.1273 111.321 33.538C110.779 33.9487 110.098 34.154 109.277 34.154C108.698 34.154 108.194 34.0607 107.765 33.874C107.345 33.6873 106.99 33.426 106.701 33.09C106.411 32.754 106.192 32.3527 106.043 31.886C105.903 31.4193 105.823 30.9107 105.805 30.36C105.805 29.8093 105.889 29.3053 106.057 28.848C106.225 28.3907 106.458 27.994 106.757 27.658C107.065 27.322 107.424 27.0607 107.835 26.874C108.255 26.6873 108.712 26.594 109.207 26.594C109.851 26.594 110.383 26.7293 110.803 27C111.232 27.2613 111.573 27.5973 111.825 28.008C112.086 28.4187 112.263 28.8667 112.357 29.352C112.459 29.8373 112.501 30.2993 112.483 30.738H107.065C107.055 31.0553 107.093 31.3587 107.177 31.648C107.261 31.928 107.396 32.18 107.583 32.404C107.769 32.6187 108.007 32.7913 108.297 32.922C108.586 33.0527 108.927 33.118 109.319 33.118C109.823 33.118 110.233 33.0013 110.551 32.768C110.877 32.5347 111.092 32.18 111.195 31.704H112.371ZM113.716 26.762H114.836V27.91H114.864C115.359 27.0327 116.143 26.594 117.216 26.594C117.692 26.594 118.089 26.6593 118.406 26.79C118.724 26.9207 118.98 27.1027 119.176 27.336C119.372 27.5693 119.508 27.8493 119.582 28.176C119.666 28.4933 119.708 28.848 119.708 29.24V34H118.518V29.1C118.518 28.652 118.388 28.2973 118.126 28.036C117.865 27.7747 117.506 27.644 117.048 27.644C116.684 27.644 116.367 27.7 116.096 27.812C115.835 27.924 115.616 28.0827 115.438 28.288C115.261 28.4933 115.126 28.736 115.032 29.016C114.948 29.2867 114.906 29.5853 114.906 29.912V34H113.716V26.762ZM123.148 26.762H124.59V27.812H123.148V32.306C123.148 32.446 123.157 32.558 123.176 32.642C123.204 32.726 123.25 32.7913 123.316 32.838C123.381 32.8847 123.47 32.9173 123.582 32.936C123.703 32.9453 123.857 32.95 124.044 32.95H124.59V34H123.68C123.372 34 123.106 33.9813 122.882 33.944C122.667 33.8973 122.49 33.818 122.35 33.706C122.219 33.594 122.121 33.4353 122.056 33.23C121.99 33.0247 121.958 32.754 121.958 32.418V27.812H120.726V26.762H121.958V24.592H123.148V26.762ZM31.122 50H29.736L27.454 41.6H27.426L25.116 50H23.73L21.168 40.004H22.526L24.486 48.32H24.514L26.754 40.004H28.196L30.408 48.32H30.436L32.466 40.004H33.796L31.122 50ZM34.932 46.388C34.932 46.8267 34.988 47.2187 35.1 47.564C35.2213 47.9 35.3846 48.1847 35.59 48.418C35.7953 48.642 36.0333 48.8147 36.304 48.936C36.584 49.0573 36.878 49.118 37.186 49.118C37.494 49.118 37.7833 49.0573 38.054 48.936C38.334 48.8147 38.5766 48.642 38.782 48.418C38.9873 48.1847 39.146 47.9 39.258 47.564C39.3793 47.2187 39.44 46.8267 39.44 46.388C39.44 45.9493 39.3793 45.562 39.258 45.226C39.146 44.8807 38.9873 44.5913 38.782 44.358C38.5766 44.1247 38.334 43.9473 38.054 43.826C37.7833 43.7047 37.494 43.644 37.186 43.644C36.878 43.644 36.584 43.7047 36.304 43.826C36.0333 43.9473 35.7953 44.1247 35.59 44.358C35.3846 44.5913 35.2213 44.8807 35.1 45.226C34.988 45.562 34.932 45.9493 34.932 46.388ZM33.672 46.388C33.672 45.856 33.7466 45.3613 33.896 44.904C34.0453 44.4373 34.2693 44.036 34.568 43.7C34.8666 43.3547 35.2353 43.084 35.674 42.888C36.1126 42.692 36.6166 42.594 37.186 42.594C37.7646 42.594 38.2686 42.692 38.698 42.888C39.1366 43.084 39.5053 43.3547 39.804 43.7C40.1026 44.036 40.3266 44.4373 40.476 44.904C40.6253 45.3613 40.7 45.856 40.7 46.388C40.7 46.92 40.6253 47.4147 40.476 47.872C40.3266 48.3293 40.1026 48.7307 39.804 49.076C39.5053 49.412 39.1366 49.678 38.698 49.874C38.2686 50.0607 37.7646 50.154 37.186 50.154C36.6166 50.154 36.1126 50.0607 35.674 49.874C35.2353 49.678 34.8666 49.412 34.568 49.076C34.2693 48.7307 34.0453 48.3293 33.896 47.872C33.7466 47.4147 33.672 46.92 33.672 46.388ZM42.061 42.762H43.181V44.288H43.209C43.4984 43.7 43.853 43.266 44.273 42.986C44.693 42.706 45.225 42.5753 45.869 42.594V43.854C45.393 43.854 44.987 43.9193 44.651 44.05C44.315 44.1807 44.0444 44.372 43.839 44.624C43.6337 44.876 43.4844 45.184 43.391 45.548C43.2977 45.9027 43.251 46.3133 43.251 46.78V50H42.061V42.762ZM46.8351 40.004H48.0251V50H46.8351V40.004ZM50.7367 46.444C50.7367 46.78 50.7787 47.1113 50.8627 47.438C50.956 47.7553 51.0913 48.04 51.2687 48.292C51.4553 48.544 51.6887 48.7447 51.9687 48.894C52.258 49.0433 52.594 49.118 52.9767 49.118C53.378 49.118 53.7187 49.0387 53.9987 48.88C54.2787 48.7213 54.5073 48.516 54.6847 48.264C54.862 48.0027 54.988 47.7087 55.0627 47.382C55.1467 47.0553 55.1887 46.724 55.1887 46.388C55.1887 46.0333 55.1467 45.6927 55.0627 45.366C54.9787 45.03 54.8433 44.736 54.6567 44.484C54.4793 44.232 54.246 44.0313 53.9567 43.882C53.6673 43.7233 53.3173 43.644 52.9067 43.644C52.5053 43.644 52.1647 43.7233 51.8847 43.882C51.6047 44.0407 51.3807 44.2507 51.2127 44.512C51.0447 44.7733 50.9233 45.072 50.8487 45.408C50.774 45.744 50.7367 46.0893 50.7367 46.444ZM56.3367 50H55.1467V49.02H55.1187C54.9227 49.4213 54.6147 49.7107 54.1947 49.888C53.7747 50.0653 53.3127 50.154 52.8087 50.154C52.2487 50.154 51.7587 50.0513 51.3387 49.846C50.928 49.6407 50.5827 49.3653 50.3027 49.02C50.032 48.6747 49.8267 48.2733 49.6867 47.816C49.5467 47.3587 49.4767 46.8733 49.4767 46.36C49.4767 45.8467 49.542 45.3613 49.6727 44.904C49.8127 44.4467 50.018 44.05 50.2887 43.714C50.5687 43.3687 50.914 43.098 51.3247 42.902C51.7447 42.6967 52.23 42.594 52.7807 42.594C52.9673 42.594 53.168 42.6127 53.3827 42.65C53.5973 42.6873 53.812 42.7527 54.0267 42.846C54.2413 42.93 54.442 43.0467 54.6287 43.196C54.8247 43.336 54.988 43.5133 55.1187 43.728H55.1467V40.004H56.3367V50ZM63.03 45.002C63.03 45.506 63.0953 46.0053 63.226 46.5C63.3566 46.9853 63.562 47.424 63.842 47.816C64.122 48.208 64.4813 48.5253 64.92 48.768C65.3586 49.0013 65.8813 49.118 66.488 49.118C67.0946 49.118 67.6173 49.0013 68.056 48.768C68.4946 48.5253 68.854 48.208 69.134 47.816C69.414 47.424 69.6193 46.9853 69.75 46.5C69.8806 46.0053 69.946 45.506 69.946 45.002C69.946 44.498 69.8806 44.0033 69.75 43.518C69.6193 43.0233 69.414 42.58 69.134 42.188C68.854 41.796 68.4946 41.4833 68.056 41.25C67.6173 41.0073 67.0946 40.886 66.488 40.886C65.8813 40.886 65.3586 41.0073 64.92 41.25C64.4813 41.4833 64.122 41.796 63.842 42.188C63.562 42.58 63.3566 43.0233 63.226 43.518C63.0953 44.0033 63.03 44.498 63.03 45.002ZM61.7 45.002C61.7 44.3207 61.798 43.6673 61.994 43.042C62.1993 42.4073 62.5026 41.8473 62.904 41.362C63.3053 40.8767 63.8046 40.4893 64.402 40.2C64.9993 39.9107 65.6946 39.766 66.488 39.766C67.2813 39.766 67.9766 39.9107 68.574 40.2C69.1713 40.4893 69.6706 40.8767 70.072 41.362C70.4733 41.8473 70.772 42.4073 70.968 43.042C71.1733 43.6673 71.276 44.3207 71.276 45.002C71.276 45.6833 71.1733 46.3413 70.968 46.976C70.772 47.6013 70.4733 48.1567 70.072 48.642C69.6706 49.1273 69.1713 49.5147 68.574 49.804C67.9766 50.084 67.2813 50.224 66.488 50.224C65.6946 50.224 64.9993 50.084 64.402 49.804C63.8046 49.5147 63.3053 49.1273 62.904 48.642C62.5026 48.1567 62.1993 47.6013 61.994 46.976C61.798 46.3413 61.7 45.6833 61.7 45.002ZM73.1907 43.812H71.9727V42.762H73.1907V41.684C73.1907 41.096 73.3587 40.6527 73.6947 40.354C74.04 40.046 74.5394 39.892 75.1927 39.892C75.3047 39.892 75.4307 39.9013 75.5707 39.92C75.72 39.9387 75.8507 39.9667 75.9627 40.004V41.04C75.86 41.0027 75.748 40.9793 75.6267 40.97C75.5054 40.9513 75.3934 40.942 75.2907 40.942C75.0014 40.942 74.7774 40.998 74.6187 41.11C74.46 41.222 74.3807 41.4367 74.3807 41.754V42.762H75.7807V43.812H74.3807V50H73.1907V43.812ZM89.9658 50H88.5798L86.2978 41.6H86.2698L83.9597 50H82.5738L80.0118 40.004H81.3698L83.3298 48.32H83.3578L85.5978 40.004H87.0397L89.2518 48.32H89.2798L91.3098 40.004H92.6398L89.9658 50ZM94.9607 41.46H93.7707V40.004H94.9607V41.46ZM93.7707 42.762H94.9607V50H93.7707V42.762ZM96.2162 49.09L100.584 43.812H96.4962V42.762H102.124V43.574L97.7002 48.95H102.32V50H96.2162V49.09ZM103.601 40.004H104.791V45.926L108.095 42.762H109.691L106.821 45.394L109.901 50H108.389L105.911 46.22L104.791 47.256V50H103.601V40.004ZM112.051 41.46H110.861V40.004H112.051V41.46ZM110.861 42.762H112.051V50H110.861V42.762ZM114.762 46.444C114.762 46.78 114.804 47.1113 114.888 47.438C114.981 47.7553 115.117 48.04 115.294 48.292C115.481 48.544 115.714 48.7447 115.994 48.894C116.283 49.0433 116.619 49.118 117.002 49.118C117.403 49.118 117.744 49.0387 118.024 48.88C118.304 48.7213 118.533 48.516 118.71 48.264C118.887 48.0027 119.013 47.7087 119.088 47.382C119.172 47.0553 119.214 46.724 119.214 46.388C119.214 46.0333 119.172 45.6927 119.088 45.366C119.004 45.03 118.869 44.736 118.682 44.484C118.505 44.232 118.271 44.0313 117.982 43.882C117.693 43.7233 117.343 43.644 116.932 43.644C116.531 43.644 116.19 43.7233 115.91 43.882C115.63 44.0407 115.406 44.2507 115.238 44.512C115.07 44.7733 114.949 45.072 114.874 45.408C114.799 45.744 114.762 46.0893 114.762 46.444ZM120.362 50H119.172V49.02H119.144C118.948 49.4213 118.64 49.7107 118.22 49.888C117.8 50.0653 117.338 50.154 116.834 50.154C116.274 50.154 115.784 50.0513 115.364 49.846C114.953 49.6407 114.608 49.3653 114.328 49.02C114.057 48.6747 113.852 48.2733 113.712 47.816C113.572 47.3587 113.502 46.8733 113.502 46.36C113.502 45.8467 113.567 45.3613 113.698 44.904C113.838 44.4467 114.043 44.05 114.314 43.714C114.594 43.3687 114.939 43.098 115.35 42.902C115.77 42.6967 116.255 42.594 116.806 42.594C116.993 42.594 117.193 42.6127 117.408 42.65C117.623 42.6873 117.837 42.7527 118.052 42.846C118.267 42.93 118.467 43.0467 118.654 43.196C118.85 43.336 119.013 43.5133 119.144 43.728H119.172V40.004H120.362V50ZM122.921 47.718C122.93 47.9793 122.991 48.2033 123.103 48.39C123.215 48.5673 123.36 48.712 123.537 48.824C123.724 48.9267 123.929 49.0013 124.153 49.048C124.386 49.0947 124.624 49.118 124.867 49.118C125.054 49.118 125.25 49.104 125.455 49.076C125.66 49.048 125.847 48.9967 126.015 48.922C126.192 48.8473 126.337 48.74 126.449 48.6C126.561 48.4507 126.617 48.264 126.617 48.04C126.617 47.732 126.5 47.4987 126.267 47.34C126.034 47.1813 125.74 47.0553 125.385 46.962C125.04 46.8593 124.662 46.7707 124.251 46.696C123.84 46.612 123.458 46.5 123.103 46.36C122.758 46.2107 122.468 46.0053 122.235 45.744C122.002 45.4827 121.885 45.1187 121.885 44.652C121.885 44.288 121.964 43.9753 122.123 43.714C122.291 43.4527 122.501 43.2427 122.753 43.084C123.014 42.916 123.304 42.7947 123.621 42.72C123.948 42.636 124.27 42.594 124.587 42.594C124.998 42.594 125.376 42.6313 125.721 42.706C126.066 42.7713 126.37 42.8927 126.631 43.07C126.902 43.238 127.116 43.4713 127.275 43.77C127.434 44.0593 127.527 44.4233 127.555 44.862H126.365C126.346 44.6287 126.286 44.4373 126.183 44.288C126.08 44.1293 125.95 44.0033 125.791 43.91C125.632 43.8167 125.455 43.7513 125.259 43.714C125.072 43.6673 124.881 43.644 124.685 43.644C124.508 43.644 124.326 43.658 124.139 43.686C123.962 43.714 123.798 43.7653 123.649 43.84C123.5 43.9053 123.378 43.9987 123.285 44.12C123.192 44.232 123.145 44.3813 123.145 44.568C123.145 44.7733 123.215 44.946 123.355 45.086C123.504 45.2167 123.691 45.3287 123.915 45.422C124.139 45.506 124.391 45.5807 124.671 45.646C124.951 45.702 125.231 45.7627 125.511 45.828C125.81 45.8933 126.099 45.9727 126.379 46.066C126.668 46.1593 126.92 46.2853 127.135 46.444C127.359 46.5933 127.536 46.7847 127.667 47.018C127.807 47.2513 127.877 47.5407 127.877 47.886C127.877 48.3247 127.784 48.6887 127.597 48.978C127.42 49.2673 127.182 49.5007 126.883 49.678C126.594 49.8553 126.262 49.9767 125.889 50.042C125.525 50.1167 125.161 50.154 124.797 50.154C124.396 50.154 124.013 50.112 123.649 50.028C123.285 49.944 122.963 49.8087 122.683 49.622C122.403 49.426 122.179 49.174 122.011 48.866C121.843 48.5487 121.75 48.166 121.731 47.718H122.921Z" fill="#D4FF7A"/>
<g clip-path="url(#clip0_2014_177)">
<path d="M890.691 34.4871C889.147 35.997 887.247 36.7435 885.007 36.7435C882.751 36.7435 880.851 35.997 879.324 34.4871C877.763 32.9773 877 31.1111 877 28.8717C877 26.6324 877.763 24.7662 879.307 23.2563C880.851 21.7465 882.751 21 885.007 21C887.264 21 889.164 21.7465 890.691 23.2563C892.235 24.7662 892.998 26.6324 892.998 28.8717C892.998 31.1111 892.235 32.9773 890.691 34.4871ZM889.537 28.8717C889.537 27.5145 889.096 26.3609 888.231 25.3939C887.366 24.4269 886.28 23.9519 885.007 23.9519C883.735 23.9519 882.666 24.4269 881.784 25.3939C880.919 26.3609 880.478 27.5145 880.478 28.8717C880.478 30.2289 880.919 31.3826 881.784 32.3326C882.649 33.2826 883.735 33.7577 885.007 33.7577C886.28 33.7577 887.349 33.2826 888.231 32.3326C889.096 31.3995 889.537 30.2459 889.537 28.8717Z" fill="#D4FF7A"/>
<path d="M898.207 30.1102L900.904 21.3394H904.45L907.13 30.1102L910.167 21.3394H913.848L908.538 36.5739H906.011L902.668 25.9878L899.36 36.5739H896.832L891.522 21.3563H895.204L898.207 30.1102Z" fill="#D4FF7A"/>
<path d="M926.062 34.4871C924.519 35.997 922.619 36.7435 920.379 36.7435C918.123 36.7435 916.223 35.997 914.696 34.4871C913.152 32.9773 912.389 31.1111 912.389 28.8717C912.389 26.6324 913.152 24.7662 914.696 23.2563C916.223 21.7465 918.123 21 920.379 21C922.636 21 924.536 21.7465 926.062 23.2563C927.606 24.7662 928.37 26.6324 928.37 28.8717C928.37 31.1111 927.606 32.9773 926.062 34.4871ZM924.909 28.8717C924.909 27.5145 924.468 26.3609 923.603 25.3939C922.737 24.4269 921.652 23.9519 920.379 23.9519C919.107 23.9519 918.038 24.4269 917.156 25.3939C916.291 26.3609 915.85 27.5145 915.85 28.8717C915.85 30.2289 916.291 31.3826 917.156 32.3326C918.021 33.2826 919.107 33.7577 920.379 33.7577C921.652 33.7577 922.72 33.2826 923.603 32.3326C924.468 31.3995 924.909 30.2459 924.909 28.8717Z" fill="#D4FF7A"/>
<path d="M933.578 30.1102L936.275 21.3394H939.821L942.501 30.1102L945.538 21.3394H949.219L943.892 36.5739H941.365L938.023 25.9878L934.714 36.5739H932.187L926.894 21.3563H930.575L933.578 30.1102Z" fill="#D4FF7A"/>
</g>
<path d="M22.764 375.388C22.764 375.827 22.82 376.219 22.932 376.564C23.0533 376.9 23.2167 377.185 23.422 377.418C23.6273 377.642 23.8653 377.815 24.136 377.936C24.416 378.057 24.71 378.118 25.018 378.118C25.326 378.118 25.6153 378.057 25.886 377.936C26.166 377.815 26.4087 377.642 26.614 377.418C26.8193 377.185 26.978 376.9 27.09 376.564C27.2113 376.219 27.272 375.827 27.272 375.388C27.272 374.949 27.2113 374.562 27.09 374.226C26.978 373.881 26.8193 373.591 26.614 373.358C26.4087 373.125 26.166 372.947 25.886 372.826C25.6153 372.705 25.326 372.644 25.018 372.644C24.71 372.644 24.416 372.705 24.136 372.826C23.8653 372.947 23.6273 373.125 23.422 373.358C23.2167 373.591 23.0533 373.881 22.932 374.226C22.82 374.562 22.764 374.949 22.764 375.388ZM21.504 375.388C21.504 374.856 21.5787 374.361 21.728 373.904C21.8773 373.437 22.1013 373.036 22.4 372.7C22.6987 372.355 23.0673 372.084 23.506 371.888C23.9447 371.692 24.4487 371.594 25.018 371.594C25.5967 371.594 26.1007 371.692 26.53 371.888C26.9687 372.084 27.3373 372.355 27.636 372.7C27.9347 373.036 28.1587 373.437 28.308 373.904C28.4573 374.361 28.532 374.856 28.532 375.388C28.532 375.92 28.4573 376.415 28.308 376.872C28.1587 377.329 27.9347 377.731 27.636 378.076C27.3373 378.412 26.9687 378.678 26.53 378.874C26.1007 379.061 25.5967 379.154 25.018 379.154C24.4487 379.154 23.9447 379.061 23.506 378.874C23.0673 378.678 22.6987 378.412 22.4 378.076C22.1013 377.731 21.8773 377.329 21.728 376.872C21.5787 376.415 21.504 375.92 21.504 375.388ZM37.1031 379H35.8431L34.3731 373.246H34.3451L32.8891 379H31.6011L29.2771 371.762H30.5931L32.2311 377.684H32.2591L33.7151 371.762H35.0171L36.5291 377.684H36.5571L38.1811 371.762H39.4131L37.1031 379ZM41.4124 375.388C41.4124 375.827 41.4684 376.219 41.5804 376.564C41.7018 376.9 41.8651 377.185 42.0704 377.418C42.2758 377.642 42.5138 377.815 42.7844 377.936C43.0644 378.057 43.3584 378.118 43.6664 378.118C43.9744 378.118 44.2638 378.057 44.5344 377.936C44.8144 377.815 45.0571 377.642 45.2624 377.418C45.4678 377.185 45.6264 376.9 45.7384 376.564C45.8598 376.219 45.9204 375.827 45.9204 375.388C45.9204 374.949 45.8598 374.562 45.7384 374.226C45.6264 373.881 45.4678 373.591 45.2624 373.358C45.0571 373.125 44.8144 372.947 44.5344 372.826C44.2638 372.705 43.9744 372.644 43.6664 372.644C43.3584 372.644 43.0644 372.705 42.7844 372.826C42.5138 372.947 42.2758 373.125 42.0704 373.358C41.8651 373.591 41.7018 373.881 41.5804 374.226C41.4684 374.562 41.4124 374.949 41.4124 375.388ZM40.1524 375.388C40.1524 374.856 40.2271 374.361 40.3764 373.904C40.5258 373.437 40.7498 373.036 41.0484 372.7C41.3471 372.355 41.7158 372.084 42.1544 371.888C42.5931 371.692 43.0971 371.594 43.6664 371.594C44.2451 371.594 44.7491 371.692 45.1784 371.888C45.6171 372.084 45.9858 372.355 46.2844 372.7C46.5831 373.036 46.8071 373.437 46.9564 373.904C47.1058 374.361 47.1804 374.856 47.1804 375.388C47.1804 375.92 47.1058 376.415 46.9564 376.872C46.8071 377.329 46.5831 377.731 46.2844 378.076C45.9858 378.412 45.6171 378.678 45.1784 378.874C44.7491 379.061 44.2451 379.154 43.6664 379.154C43.0971 379.154 42.5931 379.061 42.1544 378.874C41.7158 378.678 41.3471 378.412 41.0484 378.076C40.7498 377.731 40.5258 377.329 40.3764 376.872C40.2271 376.415 40.1524 375.92 40.1524 375.388ZM55.7515 379H54.4915L53.0215 373.246H52.9935L51.5375 379H50.2495L47.9255 371.762H49.2415L50.8795 377.684H50.9075L52.3635 371.762H53.6655L55.1775 377.684H55.2055L56.8295 371.762H58.0615L55.7515 379ZM58.6933 377.446H60.2473V379H58.6933V377.446ZM63.5837 370.46H62.3937V369.004H63.5837V370.46ZM62.3937 371.762H63.5837V379H62.3937V371.762ZM66.2953 375.388C66.2953 375.827 66.3513 376.219 66.4633 376.564C66.5846 376.9 66.7479 377.185 66.9533 377.418C67.1586 377.642 67.3966 377.815 67.6673 377.936C67.9473 378.057 68.2413 378.118 68.5493 378.118C68.8573 378.118 69.1466 378.057 69.4173 377.936C69.6973 377.815 69.9399 377.642 70.1453 377.418C70.3506 377.185 70.5093 376.9 70.6213 376.564C70.7426 376.219 70.8033 375.827 70.8033 375.388C70.8033 374.949 70.7426 374.562 70.6213 374.226C70.5093 373.881 70.3506 373.591 70.1453 373.358C69.9399 373.125 69.6973 372.947 69.4173 372.826C69.1466 372.705 68.8573 372.644 68.5493 372.644C68.2413 372.644 67.9473 372.705 67.6673 372.826C67.3966 372.947 67.1586 373.125 66.9533 373.358C66.7479 373.591 66.5846 373.881 66.4633 374.226C66.3513 374.562 66.2953 374.949 66.2953 375.388ZM65.0353 375.388C65.0353 374.856 65.1099 374.361 65.2593 373.904C65.4086 373.437 65.6326 373.036 65.9313 372.7C66.2299 372.355 66.5986 372.084 67.0373 371.888C67.4759 371.692 67.9799 371.594 68.5493 371.594C69.1279 371.594 69.6319 371.692 70.0613 371.888C70.4999 372.084 70.8686 372.355 71.1673 372.7C71.4659 373.036 71.6899 373.437 71.8393 373.904C71.9886 374.361 72.0633 374.856 72.0633 375.388C72.0633 375.92 71.9886 376.415 71.8393 376.872C71.6899 377.329 71.4659 377.731 71.1673 378.076C70.8686 378.412 70.4999 378.678 70.0613 378.874C69.6319 379.061 69.1279 379.154 68.5493 379.154C67.9799 379.154 67.4759 379.061 67.0373 378.874C66.5986 378.678 66.2299 378.412 65.9313 378.076C65.6326 377.731 65.4086 377.329 65.2593 376.872C65.1099 376.415 65.0353 375.92 65.0353 375.388Z" fill="#D4FF7A"/>
<path d="M851.891 372.302H854.551C855.307 372.302 855.848 372.171 856.175 371.91C856.511 371.639 856.679 371.238 856.679 370.706C856.679 370.351 856.623 370.071 856.511 369.866C856.399 369.661 856.245 369.502 856.049 369.39C855.853 369.278 855.624 369.208 855.363 369.18C855.111 369.143 854.84 369.124 854.551 369.124H851.891V372.302ZM850.561 368.004H854.187C854.401 368.004 854.63 368.009 854.873 368.018C855.125 368.018 855.372 368.032 855.615 368.06C855.857 368.079 856.081 368.111 856.287 368.158C856.501 368.205 856.683 368.275 856.833 368.368C857.159 368.564 857.435 368.835 857.659 369.18C857.892 369.525 858.009 369.95 858.009 370.454C858.009 370.986 857.878 371.448 857.617 371.84C857.365 372.223 857.001 372.507 856.525 372.694V372.722C857.141 372.853 857.612 373.133 857.939 373.562C858.265 373.991 858.429 374.514 858.429 375.13C858.429 375.494 858.363 375.849 858.233 376.194C858.102 376.539 857.906 376.847 857.645 377.118C857.393 377.379 857.075 377.594 856.693 377.762C856.319 377.921 855.885 378 855.391 378H850.561V368.004ZM851.891 376.88H855.223C855.811 376.88 856.268 376.721 856.595 376.404C856.931 376.087 857.099 375.648 857.099 375.088C857.099 374.761 857.038 374.491 856.917 374.276C856.795 374.061 856.632 373.893 856.427 373.772C856.231 373.641 856.002 373.553 855.741 373.506C855.479 373.45 855.209 373.422 854.929 373.422H851.891V376.88ZM865.941 378H864.821V376.852H864.793C864.541 377.3 864.219 377.631 863.827 377.846C863.435 378.051 862.973 378.154 862.441 378.154C861.965 378.154 861.568 378.093 861.251 377.972C860.933 377.841 860.677 377.659 860.481 377.426C860.285 377.193 860.145 376.917 860.061 376.6C859.986 376.273 859.949 375.914 859.949 375.522V370.762H861.139V375.662C861.139 376.11 861.269 376.465 861.531 376.726C861.792 376.987 862.151 377.118 862.609 377.118C862.973 377.118 863.285 377.062 863.547 376.95C863.817 376.838 864.041 376.679 864.219 376.474C864.396 376.269 864.527 376.031 864.611 375.76C864.704 375.48 864.751 375.177 864.751 374.85V370.762H865.941V378ZM868.988 369.46H867.798V368.004H868.988V369.46ZM867.798 370.762H868.988V378H867.798V370.762ZM870.902 368.004H872.092V378H870.902V368.004ZM875.587 370.762H877.029V371.812H875.587V376.306C875.587 376.446 875.596 376.558 875.615 376.642C875.643 376.726 875.69 376.791 875.755 376.838C875.82 376.885 875.909 376.917 876.021 376.936C876.142 376.945 876.296 376.95 876.483 376.95H877.029V378H876.119C875.811 378 875.545 377.981 875.321 377.944C875.106 377.897 874.929 377.818 874.789 377.706C874.658 377.594 874.56 377.435 874.495 377.23C874.43 377.025 874.397 376.754 874.397 376.418V371.812H873.165V370.762H874.397V368.592H875.587V370.762ZM882.29 368.004H883.48V371.742H883.508C883.704 371.341 884.012 371.051 884.432 370.874C884.852 370.687 885.314 370.594 885.818 370.594C886.378 370.594 886.863 370.697 887.274 370.902C887.694 371.107 888.039 371.387 888.31 371.742C888.59 372.087 888.8 372.489 888.94 372.946C889.08 373.403 889.15 373.889 889.15 374.402C889.15 374.915 889.08 375.401 888.94 375.858C888.809 376.315 888.604 376.717 888.324 377.062C888.053 377.398 887.708 377.664 887.288 377.86C886.877 378.056 886.396 378.154 885.846 378.154C885.668 378.154 885.468 378.135 885.244 378.098C885.029 378.061 884.814 378 884.6 377.916C884.385 377.832 884.18 377.72 883.984 377.58C883.797 377.431 883.638 377.249 883.508 377.034H883.48V378H882.29V368.004ZM887.89 374.318C887.89 373.982 887.843 373.655 887.75 373.338C887.666 373.011 887.53 372.722 887.344 372.47C887.166 372.218 886.933 372.017 886.644 371.868C886.364 371.719 886.032 371.644 885.65 371.644C885.248 371.644 884.908 371.723 884.628 371.882C884.348 372.041 884.119 372.251 883.942 372.512C883.764 372.764 883.634 373.053 883.55 373.38C883.475 373.707 883.438 374.038 883.438 374.374C883.438 374.729 883.48 375.074 883.564 375.41C883.648 375.737 883.778 376.026 883.956 376.278C884.142 376.53 884.38 376.735 884.67 376.894C884.959 377.043 885.309 377.118 885.72 377.118C886.13 377.118 886.471 377.039 886.742 376.88C887.022 376.721 887.246 376.511 887.414 376.25C887.582 375.989 887.703 375.69 887.778 375.354C887.852 375.018 887.89 374.673 887.89 374.318ZM893.388 378.966C893.248 379.321 893.108 379.619 892.968 379.862C892.838 380.105 892.688 380.301 892.52 380.45C892.362 380.609 892.18 380.721 891.974 380.786C891.778 380.861 891.55 380.898 891.288 380.898C891.148 380.898 891.008 380.889 890.868 380.87C890.728 380.851 890.593 380.819 890.462 380.772V379.68C890.565 379.727 890.682 379.764 890.812 379.792C890.952 379.829 891.069 379.848 891.162 379.848C891.405 379.848 891.606 379.787 891.764 379.666C891.932 379.554 892.058 379.391 892.142 379.176L892.632 377.958L889.762 370.762H891.106L893.22 376.684H893.248L895.278 370.762H896.538L893.388 378.966ZM910.669 378H909.283L907.001 369.6H906.973L904.663 378H903.277L900.715 368.004H902.073L904.033 376.32H904.061L906.301 368.004H907.743L909.955 376.32H909.983L912.013 368.004H913.343L910.669 378ZM915.664 369.46H914.474V368.004H915.664V369.46ZM914.474 370.762H915.664V378H914.474V370.762ZM916.919 377.09L921.287 371.812H917.199V370.762H922.827V371.574L918.403 376.95H923.023V378H916.919V377.09ZM924.304 368.004H925.494V373.926L928.798 370.762H930.394L927.524 373.394L930.604 378H929.092L926.614 374.22L925.494 375.256V378H924.304V368.004ZM932.754 369.46H931.564V368.004H932.754V369.46ZM931.564 370.762H932.754V378H931.564V370.762ZM935.465 374.444C935.465 374.78 935.507 375.111 935.591 375.438C935.685 375.755 935.82 376.04 935.997 376.292C936.184 376.544 936.417 376.745 936.697 376.894C936.987 377.043 937.323 377.118 937.705 377.118C938.107 377.118 938.447 377.039 938.727 376.88C939.007 376.721 939.236 376.516 939.413 376.264C939.591 376.003 939.717 375.709 939.791 375.382C939.875 375.055 939.917 374.724 939.917 374.388C939.917 374.033 939.875 373.693 939.791 373.366C939.707 373.03 939.572 372.736 939.385 372.484C939.208 372.232 938.975 372.031 938.685 371.882C938.396 371.723 938.046 371.644 937.635 371.644C937.234 371.644 936.893 371.723 936.613 371.882C936.333 372.041 936.109 372.251 935.941 372.512C935.773 372.773 935.652 373.072 935.577 373.408C935.503 373.744 935.465 374.089 935.465 374.444ZM941.065 378H939.875V377.02H939.847C939.651 377.421 939.343 377.711 938.923 377.888C938.503 378.065 938.041 378.154 937.537 378.154C936.977 378.154 936.487 378.051 936.067 377.846C935.657 377.641 935.311 377.365 935.031 377.02C934.761 376.675 934.555 376.273 934.415 375.816C934.275 375.359 934.205 374.873 934.205 374.36C934.205 373.847 934.271 373.361 934.401 372.904C934.541 372.447 934.747 372.05 935.017 371.714C935.297 371.369 935.643 371.098 936.053 370.902C936.473 370.697 936.959 370.594 937.509 370.594C937.696 370.594 937.897 370.613 938.111 370.65C938.326 370.687 938.541 370.753 938.755 370.846C938.97 370.93 939.171 371.047 939.357 371.196C939.553 371.336 939.717 371.513 939.847 371.728H939.875V368.004H941.065V378ZM943.624 375.718C943.633 375.979 943.694 376.203 943.806 376.39C943.918 376.567 944.063 376.712 944.24 376.824C944.427 376.927 944.632 377.001 944.856 377.048C945.089 377.095 945.327 377.118 945.57 377.118C945.757 377.118 945.953 377.104 946.158 377.076C946.363 377.048 946.55 376.997 946.718 376.922C946.895 376.847 947.04 376.74 947.152 376.6C947.264 376.451 947.32 376.264 947.32 376.04C947.32 375.732 947.203 375.499 946.97 375.34C946.737 375.181 946.443 375.055 946.088 374.962C945.743 374.859 945.365 374.771 944.954 374.696C944.543 374.612 944.161 374.5 943.806 374.36C943.461 374.211 943.171 374.005 942.938 373.744C942.705 373.483 942.588 373.119 942.588 372.652C942.588 372.288 942.667 371.975 942.826 371.714C942.994 371.453 943.204 371.243 943.456 371.084C943.717 370.916 944.007 370.795 944.324 370.72C944.651 370.636 944.973 370.594 945.29 370.594C945.701 370.594 946.079 370.631 946.424 370.706C946.769 370.771 947.073 370.893 947.334 371.07C947.605 371.238 947.819 371.471 947.978 371.77C948.137 372.059 948.23 372.423 948.258 372.862H947.068C947.049 372.629 946.989 372.437 946.886 372.288C946.783 372.129 946.653 372.003 946.494 371.91C946.335 371.817 946.158 371.751 945.962 371.714C945.775 371.667 945.584 371.644 945.388 371.644C945.211 371.644 945.029 371.658 944.842 371.686C944.665 371.714 944.501 371.765 944.352 371.84C944.203 371.905 944.081 371.999 943.988 372.12C943.895 372.232 943.848 372.381 943.848 372.568C943.848 372.773 943.918 372.946 944.058 373.086C944.207 373.217 944.394 373.329 944.618 373.422C944.842 373.506 945.094 373.581 945.374 373.646C945.654 373.702 945.934 373.763 946.214 373.828C946.513 373.893 946.802 373.973 947.082 374.066C947.371 374.159 947.623 374.285 947.838 374.444C948.062 374.593 948.239 374.785 948.37 375.018C948.51 375.251 948.58 375.541 948.58 375.886C948.58 376.325 948.487 376.689 948.3 376.978C948.123 377.267 947.885 377.501 947.586 377.678C947.297 377.855 946.965 377.977 946.592 378.042C946.228 378.117 945.864 378.154 945.5 378.154C945.099 378.154 944.716 378.112 944.352 378.028C943.988 377.944 943.666 377.809 943.386 377.622C943.106 377.426 942.882 377.174 942.714 376.866C942.546 376.549 942.453 376.166 942.434 375.718H943.624Z" fill="#D4FF7A"/>
<path d="M941.474 342.5C942.396 342.498 943.31 342.677 944.163 343.029C945.015 343.381 945.79 343.898 946.443 344.55C947.096 345.203 947.614 345.978 947.967 346.831C948.32 347.684 948.501 348.598 948.5 349.522C948.505 353.353 945.367 356.486 941.51 356.5C937.665 356.515 934.491 353.345 934.5 349.499C934.509 345.653 937.645 342.506 941.474 342.5ZM939.537 351.456L943.468 351.456L943.468 347.546L939.537 347.546L939.537 351.456ZM934.846 350.265C935.16 353.571 938.022 355.98 940.682 356.139C940.51 355.836 940.315 355.542 940.169 355.226C939.705 354.216 939.5 353.135 939.371 352.04C939.344 351.803 939.293 351.681 939.014 351.646C937.547 351.444 936.091 351.201 934.846 350.262L934.846 350.265ZM948.161 348.733C947.937 345.767 944.607 342.463 942.326 342.898C942.449 343.097 942.583 343.292 942.693 343.496C943.263 344.568 943.479 345.738 943.629 346.926C943.662 347.19 943.717 347.323 944.034 347.367C945.475 347.557 946.91 347.797 948.161 348.73L948.161 348.733ZM940.731 342.842C937.371 343.149 934.984 346.144 934.879 348.711C936.191 347.735 937.742 347.541 939.307 347.305C939.541 345.756 939.731 344.19 940.731 342.839L940.731 342.842ZM942.28 356.154C945.437 355.883 947.964 353.097 948.14 350.285C946.822 351.267 945.257 351.466 943.694 351.702C943.463 353.252 943.271 354.804 942.28 356.15L942.28 356.154ZM939.597 351.761C939.658 352.16 939.705 352.559 939.782 352.953C939.966 353.906 940.175 354.857 940.731 355.679C941.219 356.402 941.766 356.424 942.247 355.706C943.043 354.517 943.213 353.137 943.408 351.761L939.597 351.761ZM943.407 347.238C943.346 346.833 943.305 346.433 943.224 346.042C943.023 345.067 942.826 344.085 942.221 343.258C941.749 342.609 941.229 342.6 940.779 343.263C939.967 344.459 939.797 345.848 939.599 347.238L943.407 347.238ZM943.754 351.404C944.082 351.359 944.393 351.325 944.698 351.271C945.715 351.086 946.733 350.884 947.619 350.311C948.426 349.789 948.421 349.179 947.597 348.68C946.418 347.972 945.093 347.768 943.752 347.603L943.754 351.404ZM939.248 347.598C938.913 347.646 938.58 347.682 938.25 347.742C937.245 347.924 936.245 348.136 935.371 348.699C934.595 349.203 934.564 349.826 935.362 350.273C936.024 350.643 936.77 350.884 937.502 351.103C938.066 351.272 938.667 351.318 939.248 351.418L939.248 347.598Z" fill="#D4FF7A" stroke="#D4FF7A" stroke-width="0.4375"/>
<path fill-rule="evenodd" clip-rule="evenodd" d="M504.443 162.895C504.457 162.948 504.464 163.002 504.464 163.056V171.496C504.464 171.604 504.436 171.711 504.382 171.805C504.327 171.898 504.249 171.976 504.155 172.03L497.071 176.108V184.192C497.071 184.412 496.954 184.615 496.764 184.726L481.977 193.238C481.943 193.258 481.906 193.27 481.869 193.283C481.855 193.288 481.842 193.296 481.828 193.3C481.724 193.327 481.615 193.327 481.512 193.3C481.495 193.295 481.48 193.286 481.464 193.28C481.43 193.268 481.394 193.257 481.362 193.238L466.578 184.726C466.484 184.672 466.406 184.594 466.352 184.501C466.298 184.407 466.269 184.301 466.269 184.192V158.872C466.269 158.817 466.277 158.763 466.291 158.711C466.295 158.693 466.306 158.677 466.312 158.659C466.324 158.627 466.334 158.594 466.351 158.564C466.363 158.544 466.38 158.528 466.394 158.509C466.411 158.485 466.428 158.459 466.448 158.438C466.466 158.42 466.489 158.407 466.509 158.391C466.531 158.373 466.551 158.353 466.577 158.338L473.97 154.082C474.063 154.028 474.17 154 474.278 154C474.385 154 474.492 154.028 474.585 154.082L481.978 158.338H481.979C482.004 158.354 482.024 158.373 482.047 158.391C482.067 158.406 482.089 158.42 482.107 158.437C482.128 158.459 482.144 158.485 482.162 158.509C482.175 158.528 482.193 158.544 482.204 158.564C482.221 158.595 482.231 158.627 482.244 158.659C482.25 158.677 482.261 158.693 482.265 158.711C482.279 158.764 482.287 158.818 482.287 158.872V174.687L488.447 171.14V163.055C488.447 163.001 488.454 162.947 488.468 162.895C488.474 162.877 488.484 162.861 488.49 162.843C488.502 162.811 488.513 162.778 488.53 162.748C488.541 162.728 488.558 162.711 488.571 162.693C488.59 162.668 488.605 162.643 488.627 162.621C488.644 162.604 488.667 162.591 488.687 162.575C488.71 162.557 488.73 162.537 488.754 162.522L496.148 158.266C496.242 158.212 496.348 158.184 496.456 158.184C496.564 158.184 496.67 158.212 496.764 158.266L504.156 162.522C504.182 162.538 504.202 162.557 504.225 162.575C504.244 162.59 504.267 162.604 504.284 162.621C504.306 162.643 504.321 162.668 504.34 162.693C504.354 162.711 504.371 162.728 504.381 162.748C504.399 162.778 504.409 162.811 504.421 162.843C504.428 162.861 504.438 162.877 504.443 162.895ZM503.232 171.14V164.121L500.645 165.611L497.071 167.668V174.687L503.233 171.14H503.232ZM495.84 183.836V176.813L492.324 178.821L482.286 184.55V191.639L495.84 183.836ZM467.501 159.938V183.836L481.054 191.638V184.551L473.974 180.544L473.971 180.542L473.968 180.541C473.944 180.527 473.924 180.507 473.902 180.49C473.883 180.475 473.861 180.462 473.844 180.445L473.842 180.443C473.822 180.424 473.808 180.4 473.791 180.378C473.776 180.358 473.758 180.34 473.745 180.318L473.744 180.316C473.731 180.293 473.722 180.265 473.712 180.239C473.702 180.216 473.689 180.195 473.683 180.17C473.675 180.141 473.674 180.109 473.671 180.079C473.668 180.056 473.661 180.033 473.661 180.01V180.008V163.485L470.088 161.426L467.501 159.938ZM474.278 155.327L468.119 158.872L474.277 162.418L480.435 158.871L474.277 155.327H474.278ZM477.481 177.453L481.054 175.396V159.938L478.468 161.427L474.894 163.485V178.943L477.481 177.453ZM496.456 159.511L490.298 163.056L496.456 166.601L502.614 163.055L496.456 159.511ZM495.84 167.668L492.266 165.611L489.679 164.121V171.14L493.252 173.197L495.84 174.687V167.668ZM481.669 183.485L490.702 178.328L495.218 175.751L489.064 172.208L481.978 176.287L475.521 180.005L481.669 183.485Z" fill="#D4FF7A"/>
<path d="M289.076 224.904H292.016V244.524H303.714V247H289.076V224.904ZM320.012 246.938C319.558 247.206 318.929 247.34 318.124 247.34C317.443 247.34 316.897 247.155 316.484 246.783C316.092 246.391 315.896 245.762 315.896 244.896C315.174 245.762 314.328 246.391 313.358 246.783C312.409 247.155 311.378 247.34 310.264 247.34C309.542 247.34 308.851 247.258 308.19 247.093C307.551 246.928 306.994 246.67 306.519 246.319C306.045 245.968 305.663 245.515 305.374 244.958C305.106 244.38 304.972 243.689 304.972 242.884C304.972 241.976 305.127 241.234 305.436 240.656C305.746 240.078 306.148 239.614 306.643 239.263C307.159 238.892 307.737 238.614 308.376 238.428C309.036 238.242 309.707 238.088 310.388 237.964C311.11 237.819 311.791 237.716 312.43 237.654C313.09 237.572 313.668 237.469 314.163 237.345C314.658 237.2 315.05 237.004 315.339 236.757C315.628 236.489 315.772 236.107 315.772 235.612C315.772 235.034 315.659 234.57 315.432 234.219C315.226 233.869 314.947 233.6 314.596 233.415C314.266 233.229 313.885 233.105 313.451 233.043C313.039 232.981 312.626 232.95 312.213 232.95C311.099 232.95 310.171 233.167 309.428 233.6C308.686 234.013 308.283 234.807 308.221 235.983H305.591C305.632 234.993 305.839 234.157 306.21 233.477C306.581 232.796 307.076 232.249 307.695 231.836C308.314 231.403 309.016 231.094 309.8 230.908C310.604 230.722 311.46 230.63 312.368 230.63C313.09 230.63 313.802 230.681 314.503 230.784C315.226 230.887 315.875 231.104 316.453 231.434C317.031 231.744 317.495 232.187 317.846 232.765C318.196 233.342 318.372 234.095 318.372 235.024V243.256C318.372 243.874 318.403 244.328 318.465 244.617C318.547 244.906 318.795 245.05 319.207 245.05C319.434 245.05 319.702 244.999 320.012 244.896V246.938ZM315.741 238.737C315.411 238.985 314.978 239.171 314.442 239.294C313.905 239.398 313.338 239.49 312.74 239.573C312.162 239.635 311.574 239.717 310.976 239.821C310.377 239.903 309.841 240.047 309.366 240.254C308.892 240.46 308.5 240.759 308.19 241.151C307.902 241.523 307.757 242.038 307.757 242.698C307.757 243.132 307.84 243.503 308.005 243.813C308.19 244.101 308.417 244.339 308.686 244.524C308.974 244.71 309.305 244.844 309.676 244.927C310.047 245.009 310.439 245.05 310.852 245.05C311.718 245.05 312.461 244.937 313.08 244.71C313.699 244.462 314.204 244.163 314.596 243.813C314.988 243.441 315.277 243.049 315.463 242.637C315.648 242.203 315.741 241.801 315.741 241.43V238.737ZM322.367 231.001H324.843V234.374H324.905C325.544 233.074 326.328 232.115 327.257 231.496C328.185 230.877 329.361 230.588 330.784 230.63V233.415C329.732 233.415 328.835 233.559 328.092 233.848C327.349 234.137 326.751 234.56 326.297 235.117C325.843 235.674 325.513 236.355 325.307 237.159C325.101 237.943 324.998 238.851 324.998 239.882V247H322.367V231.001ZM346.939 246.938C346.485 247.206 345.855 247.34 345.051 247.34C344.37 247.34 343.823 247.155 343.411 246.783C343.019 246.391 342.823 245.762 342.823 244.896C342.101 245.762 341.255 246.391 340.285 246.783C339.336 247.155 338.305 247.34 337.191 247.34C336.468 247.34 335.777 247.258 335.117 247.093C334.478 246.928 333.921 246.67 333.446 246.319C332.972 245.968 332.59 245.515 332.301 244.958C332.033 244.38 331.899 243.689 331.899 242.884C331.899 241.976 332.053 241.234 332.363 240.656C332.672 240.078 333.075 239.614 333.57 239.263C334.086 238.892 334.663 238.614 335.303 238.428C335.963 238.242 336.634 238.088 337.314 237.964C338.036 237.819 338.717 237.716 339.357 237.654C340.017 237.572 340.595 237.469 341.09 237.345C341.585 237.2 341.977 237.004 342.266 236.757C342.555 236.489 342.699 236.107 342.699 235.612C342.699 235.034 342.585 234.57 342.359 234.219C342.152 233.869 341.874 233.6 341.523 233.415C341.193 233.229 340.811 233.105 340.378 233.043C339.965 232.981 339.553 232.95 339.14 232.95C338.026 232.95 337.098 233.167 336.355 233.6C335.612 234.013 335.21 234.807 335.148 235.983H332.518C332.559 234.993 332.765 234.157 333.137 233.477C333.508 232.796 334.003 232.249 334.622 231.836C335.241 231.403 335.942 231.094 336.726 230.908C337.531 230.722 338.387 230.63 339.295 230.63C340.017 230.63 340.729 230.681 341.43 230.784C342.152 230.887 342.802 231.104 343.38 231.434C343.957 231.744 344.422 232.187 344.772 232.765C345.123 233.342 345.298 234.095 345.298 235.024V243.256C345.298 243.874 345.329 244.328 345.391 244.617C345.474 244.906 345.721 245.05 346.134 245.05C346.361 245.05 346.629 244.999 346.939 244.896V246.938ZM342.668 238.737C342.338 238.985 341.905 239.171 341.368 239.294C340.832 239.398 340.265 239.49 339.666 239.573C339.089 239.635 338.501 239.717 337.902 239.821C337.304 239.903 336.768 240.047 336.293 240.254C335.819 240.46 335.427 240.759 335.117 241.151C334.828 241.523 334.684 242.038 334.684 242.698C334.684 243.132 334.766 243.503 334.931 243.813C335.117 244.101 335.344 244.339 335.612 244.524C335.901 244.71 336.231 244.844 336.603 244.927C336.974 245.009 337.366 245.05 337.779 245.05C338.645 245.05 339.388 244.937 340.007 244.71C340.626 244.462 341.131 244.163 341.523 243.813C341.915 243.441 342.204 243.049 342.389 242.637C342.575 242.203 342.668 241.801 342.668 241.43V238.737ZM356.597 247H353.781L347.839 231.001H350.779L355.266 244.339H355.328L359.692 231.001H362.446L356.597 247ZM375.969 237.469C375.928 236.85 375.784 236.262 375.536 235.705C375.309 235.148 374.989 234.673 374.577 234.281C374.185 233.869 373.71 233.549 373.153 233.322C372.617 233.074 372.019 232.95 371.358 232.95C370.678 232.95 370.059 233.074 369.502 233.322C368.965 233.549 368.501 233.869 368.109 234.281C367.717 234.694 367.408 235.179 367.181 235.736C366.954 236.272 366.82 236.85 366.778 237.469H375.969ZM378.507 241.925C378.156 243.72 377.383 245.071 376.186 245.979C374.989 246.887 373.483 247.34 371.668 247.34C370.389 247.34 369.275 247.134 368.326 246.721C367.397 246.309 366.613 245.731 365.974 244.989C365.334 244.246 364.849 243.359 364.519 242.327C364.21 241.296 364.035 240.171 363.993 238.954C363.993 237.737 364.179 236.623 364.55 235.612C364.922 234.601 365.437 233.724 366.098 232.981C366.778 232.239 367.573 231.661 368.48 231.248C369.409 230.836 370.42 230.63 371.513 230.63C372.937 230.63 374.113 230.929 375.041 231.527C375.99 232.105 376.743 232.847 377.3 233.755C377.878 234.663 378.27 235.653 378.476 236.726C378.703 237.799 378.796 238.82 378.755 239.79H366.778C366.758 240.491 366.84 241.162 367.026 241.801C367.212 242.42 367.511 242.977 367.923 243.472C368.336 243.947 368.862 244.328 369.502 244.617C370.141 244.906 370.894 245.05 371.761 245.05C372.875 245.05 373.783 244.793 374.484 244.277C375.206 243.761 375.681 242.977 375.907 241.925H378.507ZM381.636 224.904H384.266V247H381.636V224.904ZM397.356 224.904H400.482L412.118 242.822H412.18V224.904H414.965V247H411.746L400.204 229.268H400.142V247H397.356V224.904ZM421.206 239.016C421.206 239.986 421.33 240.852 421.577 241.615C421.846 242.358 422.207 242.987 422.66 243.503C423.114 243.998 423.64 244.38 424.239 244.648C424.858 244.916 425.508 245.05 426.188 245.05C426.869 245.05 427.509 244.916 428.107 244.648C428.726 244.38 429.262 243.998 429.716 243.503C430.17 242.987 430.521 242.358 430.768 241.615C431.037 240.852 431.171 239.986 431.171 239.016C431.171 238.046 431.037 237.19 430.768 236.447C430.521 235.684 430.17 235.044 429.716 234.529C429.262 234.013 428.726 233.621 428.107 233.353C427.509 233.085 426.869 232.95 426.188 232.95C425.508 232.95 424.858 233.085 424.239 233.353C423.64 233.621 423.114 234.013 422.66 234.529C422.207 235.044 421.846 235.684 421.577 236.447C421.33 237.19 421.206 238.046 421.206 239.016ZM418.421 239.016C418.421 237.84 418.586 236.747 418.916 235.736C419.246 234.704 419.741 233.817 420.401 233.074C421.062 232.311 421.877 231.713 422.846 231.279C423.816 230.846 424.93 230.63 426.188 230.63C427.467 230.63 428.581 230.846 429.531 231.279C430.5 231.713 431.315 232.311 431.975 233.074C432.635 233.817 433.131 234.704 433.461 235.736C433.791 236.747 433.956 237.84 433.956 239.016C433.956 240.192 433.791 241.285 433.461 242.296C433.131 243.307 432.635 244.194 431.975 244.958C431.315 245.7 430.5 246.288 429.531 246.721C428.581 247.134 427.467 247.34 426.188 247.34C424.93 247.34 423.816 247.134 422.846 246.721C421.877 246.288 421.062 245.7 420.401 244.958C419.741 244.194 419.246 243.307 418.916 242.296C418.586 241.285 418.421 240.192 418.421 239.016ZM440.709 231.001H443.896V233.322H440.709V243.256C440.709 243.565 440.729 243.813 440.771 243.998C440.833 244.184 440.936 244.328 441.08 244.431C441.225 244.535 441.421 244.607 441.668 244.648C441.936 244.669 442.277 244.679 442.689 244.679H443.896V247H441.885C441.204 247 440.616 246.959 440.121 246.876C439.646 246.773 439.254 246.598 438.945 246.35C438.656 246.103 438.439 245.752 438.295 245.298C438.151 244.844 438.078 244.246 438.078 243.503V233.322H435.355V231.001H438.078V226.204H440.709V231.001ZM449.604 228.123H446.973V224.904H449.604V228.123ZM446.973 231.001H449.604V247H446.973V231.001ZM462.993 247V231.001H465.624V247H462.993ZM462.993 228.123V224.904H465.624V228.123H462.993ZM454.762 233.322H452.069V231.001H454.762V228.618C454.762 227.318 455.133 226.338 455.876 225.678C456.639 224.997 457.743 224.657 459.187 224.657C459.435 224.657 459.713 224.678 460.023 224.719C460.353 224.76 460.641 224.822 460.889 224.904V227.195C460.662 227.112 460.415 227.06 460.146 227.04C459.878 226.999 459.631 226.978 459.404 226.978C458.764 226.978 458.269 227.102 457.918 227.349C457.567 227.597 457.392 228.071 457.392 228.773V231.001H460.487V233.322H457.392V247H454.762V233.322ZM480.558 236.138C480.351 235.127 479.918 234.343 479.258 233.786C478.598 233.229 477.711 232.95 476.597 232.95C475.648 232.95 474.853 233.126 474.214 233.477C473.574 233.827 473.058 234.291 472.666 234.869C472.295 235.447 472.027 236.117 471.862 236.881C471.697 237.623 471.614 238.397 471.614 239.202C471.614 239.944 471.697 240.666 471.862 241.368C472.048 242.069 472.326 242.698 472.697 243.256C473.069 243.792 473.554 244.225 474.152 244.555C474.75 244.885 475.462 245.05 476.287 245.05C477.587 245.05 478.598 244.71 479.32 244.029C480.063 243.348 480.516 242.389 480.681 241.151H483.374C483.085 243.132 482.342 244.658 481.146 245.731C479.97 246.804 478.361 247.34 476.318 247.34C475.101 247.34 474.018 247.144 473.069 246.752C472.14 246.36 471.356 245.803 470.717 245.081C470.098 244.359 469.623 243.503 469.293 242.513C468.984 241.502 468.829 240.398 468.829 239.202C468.829 238.005 468.984 236.891 469.293 235.859C469.603 234.807 470.067 233.899 470.686 233.136C471.325 232.352 472.12 231.744 473.069 231.31C474.018 230.856 475.122 230.63 476.38 230.63C477.288 230.63 478.134 230.743 478.918 230.97C479.722 231.176 480.424 231.506 481.022 231.96C481.641 232.414 482.146 232.992 482.538 233.693C482.93 234.374 483.178 235.189 483.281 236.138H480.558ZM500.49 246.938C500.036 247.206 499.407 247.34 498.603 247.34C497.922 247.34 497.375 247.155 496.963 246.783C496.571 246.391 496.375 245.762 496.375 244.896C495.652 245.762 494.807 246.391 493.837 246.783C492.888 247.155 491.856 247.34 490.742 247.34C490.02 247.34 489.329 247.258 488.669 247.093C488.029 246.928 487.472 246.67 486.998 246.319C486.523 245.968 486.142 245.515 485.853 244.958C485.585 244.38 485.451 243.689 485.451 242.884C485.451 241.976 485.605 241.234 485.915 240.656C486.224 240.078 486.627 239.614 487.122 239.263C487.637 238.892 488.215 238.614 488.855 238.428C489.515 238.242 490.185 238.088 490.866 237.964C491.588 237.819 492.269 237.716 492.909 237.654C493.569 237.572 494.146 237.469 494.642 237.345C495.137 237.2 495.529 237.004 495.817 236.757C496.106 236.489 496.251 236.107 496.251 235.612C496.251 235.034 496.137 234.57 495.91 234.219C495.704 233.869 495.426 233.6 495.075 233.415C494.745 233.229 494.363 233.105 493.93 233.043C493.517 232.981 493.105 232.95 492.692 232.95C491.578 232.95 490.65 233.167 489.907 233.6C489.164 234.013 488.762 234.807 488.7 235.983H486.069C486.111 234.993 486.317 234.157 486.688 233.477C487.06 232.796 487.555 232.249 488.174 231.836C488.793 231.403 489.494 231.094 490.278 230.908C491.083 230.722 491.939 230.63 492.847 230.63C493.569 230.63 494.281 230.681 494.982 230.784C495.704 230.887 496.354 231.104 496.932 231.434C497.509 231.744 497.973 232.187 498.324 232.765C498.675 233.342 498.85 234.095 498.85 235.024V243.256C498.85 243.874 498.881 244.328 498.943 244.617C499.026 244.906 499.273 245.05 499.686 245.05C499.913 245.05 500.181 244.999 500.49 244.896V246.938ZM496.22 238.737C495.89 238.985 495.456 239.171 494.92 239.294C494.384 239.398 493.816 239.49 493.218 239.573C492.64 239.635 492.052 239.717 491.454 239.821C490.856 239.903 490.319 240.047 489.845 240.254C489.37 240.46 488.978 240.759 488.669 241.151C488.38 241.523 488.236 242.038 488.236 242.698C488.236 243.132 488.318 243.503 488.483 243.813C488.669 244.101 488.896 244.339 489.164 244.524C489.453 244.71 489.783 244.844 490.154 244.927C490.526 245.009 490.918 245.05 491.33 245.05C492.197 245.05 492.94 244.937 493.558 244.71C494.177 244.462 494.683 244.163 495.075 243.813C495.467 243.441 495.756 243.049 495.941 242.637C496.127 242.203 496.22 241.801 496.22 241.43V238.737ZM506.59 231.001H509.778V233.322H506.59V243.256C506.59 243.565 506.611 243.813 506.652 243.998C506.714 244.184 506.817 244.328 506.961 244.431C507.106 244.535 507.302 244.607 507.549 244.648C507.818 244.669 508.158 244.679 508.571 244.679H509.778V247H507.766C507.085 247 506.497 246.959 506.002 246.876C505.528 246.773 505.136 246.598 504.826 246.35C504.537 246.103 504.321 245.752 504.176 245.298C504.032 244.844 503.96 244.246 503.96 243.503V233.322H501.236V231.001H503.96V226.204H506.59V231.001ZM515.485 228.123H512.855V224.904H515.485V228.123ZM512.855 231.001H515.485V247H512.855V231.001ZM521.479 239.016C521.479 239.986 521.602 240.852 521.85 241.615C522.118 242.358 522.479 242.987 522.933 243.503C523.387 243.998 523.913 244.38 524.511 244.648C525.13 244.916 525.78 245.05 526.461 245.05C527.142 245.05 527.781 244.916 528.38 244.648C528.998 244.38 529.535 243.998 529.989 243.503C530.443 242.987 530.793 242.358 531.041 241.615C531.309 240.852 531.443 239.986 531.443 239.016C531.443 238.046 531.309 237.19 531.041 236.447C530.793 235.684 530.443 235.044 529.989 234.529C529.535 234.013 528.998 233.621 528.38 233.353C527.781 233.085 527.142 232.95 526.461 232.95C525.78 232.95 525.13 233.085 524.511 233.353C523.913 233.621 523.387 234.013 522.933 234.529C522.479 235.044 522.118 235.684 521.85 236.447C521.602 237.19 521.479 238.046 521.479 239.016ZM518.693 239.016C518.693 237.84 518.858 236.747 519.189 235.736C519.519 234.704 520.014 233.817 520.674 233.074C521.334 232.311 522.149 231.713 523.119 231.279C524.088 230.846 525.202 230.63 526.461 230.63C527.74 230.63 528.854 230.846 529.803 231.279C530.773 231.713 531.588 232.311 532.248 233.074C532.908 233.817 533.403 234.704 533.733 235.736C534.063 236.747 534.228 237.84 534.228 239.016C534.228 240.192 534.063 241.285 533.733 242.296C533.403 243.307 532.908 244.194 532.248 244.958C531.588 245.7 530.773 246.288 529.803 246.721C528.854 247.134 527.74 247.34 526.461 247.34C525.202 247.34 524.088 247.134 523.119 246.721C522.149 246.288 521.334 245.7 520.674 244.958C520.014 244.194 519.519 243.307 519.189 242.296C518.858 241.285 518.693 240.192 518.693 239.016ZM537.33 231.001H539.805V233.538H539.867C540.961 231.599 542.694 230.63 545.066 230.63C546.118 230.63 546.995 230.774 547.697 231.063C548.398 231.352 548.965 231.754 549.399 232.27C549.832 232.785 550.131 233.404 550.296 234.126C550.482 234.828 550.575 235.612 550.575 236.478V247H547.944V236.169C547.944 235.179 547.655 234.395 547.078 233.817C546.5 233.239 545.706 232.95 544.695 232.95C543.89 232.95 543.189 233.074 542.591 233.322C542.013 233.569 541.528 233.92 541.136 234.374C540.744 234.828 540.445 235.364 540.239 235.983C540.053 236.581 539.96 237.242 539.96 237.964V247H537.33V231.001ZM556.135 241.956C556.155 242.533 556.289 243.029 556.537 243.441C556.784 243.833 557.104 244.153 557.496 244.401C557.909 244.627 558.363 244.793 558.858 244.896C559.374 244.999 559.9 245.05 560.436 245.05C560.849 245.05 561.282 245.019 561.736 244.958C562.19 244.896 562.602 244.782 562.974 244.617C563.366 244.452 563.685 244.215 563.933 243.905C564.181 243.575 564.304 243.163 564.304 242.668C564.304 241.987 564.046 241.471 563.531 241.12C563.015 240.77 562.365 240.491 561.581 240.285C560.818 240.058 559.982 239.862 559.074 239.697C558.167 239.511 557.321 239.263 556.537 238.954C555.774 238.624 555.134 238.17 554.618 237.592C554.102 237.015 553.845 236.21 553.845 235.179C553.845 234.374 554.02 233.683 554.371 233.105C554.742 232.528 555.206 232.063 555.763 231.713C556.341 231.341 556.98 231.073 557.682 230.908C558.404 230.722 559.116 230.63 559.817 230.63C560.725 230.63 561.56 230.712 562.324 230.877C563.087 231.022 563.758 231.29 564.335 231.682C564.934 232.053 565.408 232.569 565.759 233.229C566.109 233.869 566.316 234.673 566.378 235.643H563.747C563.706 235.127 563.572 234.704 563.345 234.374C563.118 234.023 562.829 233.745 562.478 233.538C562.128 233.332 561.736 233.188 561.303 233.105C560.89 233.002 560.467 232.95 560.034 232.95C559.642 232.95 559.239 232.981 558.827 233.043C558.435 233.105 558.074 233.219 557.744 233.384C557.414 233.528 557.145 233.734 556.939 234.003C556.733 234.25 556.63 234.58 556.63 234.993C556.63 235.447 556.784 235.828 557.094 236.138C557.424 236.427 557.837 236.674 558.332 236.881C558.827 237.066 559.384 237.231 560.003 237.376C560.622 237.5 561.241 237.634 561.86 237.778C562.52 237.922 563.159 238.098 563.778 238.304C564.418 238.51 564.975 238.789 565.449 239.14C565.944 239.47 566.336 239.893 566.625 240.408C566.935 240.924 567.089 241.564 567.089 242.327C567.089 243.297 566.883 244.101 566.471 244.741C566.079 245.38 565.552 245.896 564.892 246.288C564.253 246.68 563.52 246.948 562.695 247.093C561.891 247.258 561.086 247.34 560.281 247.34C559.394 247.34 558.548 247.248 557.744 247.062C556.939 246.876 556.227 246.577 555.608 246.164C554.99 245.731 554.494 245.174 554.123 244.493C553.752 243.792 553.545 242.946 553.504 241.956H556.135ZM581.984 234.405H587.864C589.535 234.405 590.732 234.116 591.454 233.538C592.197 232.94 592.568 232.053 592.568 230.877C592.568 230.093 592.444 229.474 592.197 229.02C591.949 228.566 591.609 228.216 591.175 227.968C590.742 227.721 590.237 227.566 589.659 227.504C589.102 227.421 588.504 227.38 587.864 227.38H581.984V234.405ZM579.045 224.904H587.06C587.534 224.904 588.04 224.915 588.576 224.935C589.133 224.935 589.68 224.966 590.216 225.028C590.752 225.07 591.248 225.142 591.701 225.245C592.176 225.348 592.578 225.503 592.908 225.709C593.63 226.142 594.239 226.741 594.734 227.504C595.25 228.267 595.508 229.206 595.508 230.32C595.508 231.496 595.219 232.517 594.641 233.384C594.084 234.23 593.28 234.859 592.228 235.271V235.333C593.589 235.622 594.631 236.241 595.353 237.19C596.075 238.139 596.436 239.294 596.436 240.656C596.436 241.461 596.292 242.245 596.003 243.008C595.714 243.771 595.281 244.452 594.703 245.05C594.146 245.628 593.445 246.103 592.599 246.474C591.774 246.825 590.814 247 589.721 247H579.045V224.904ZM581.984 244.524H589.35C590.649 244.524 591.66 244.174 592.382 243.472C593.125 242.771 593.496 241.801 593.496 240.563C593.496 239.841 593.362 239.243 593.094 238.768C592.826 238.294 592.465 237.922 592.011 237.654C591.578 237.365 591.072 237.169 590.495 237.066C589.917 236.943 589.319 236.881 588.7 236.881H581.984V244.524ZM613.041 247H610.565V244.462H610.503C609.946 245.453 609.235 246.185 608.368 246.66C607.502 247.113 606.48 247.34 605.305 247.34C604.252 247.34 603.376 247.206 602.674 246.938C601.973 246.649 601.405 246.247 600.972 245.731C600.539 245.215 600.229 244.607 600.044 243.905C599.879 243.183 599.796 242.389 599.796 241.523V231.001H602.427V241.832C602.427 242.822 602.715 243.606 603.293 244.184C603.871 244.762 604.665 245.05 605.676 245.05C606.48 245.05 607.172 244.927 607.749 244.679C608.348 244.431 608.843 244.081 609.235 243.627C609.627 243.173 609.915 242.647 610.101 242.049C610.307 241.43 610.411 240.759 610.411 240.037V231.001H613.041V247ZM616.992 231.001H619.467V233.538H619.529C620.623 231.599 622.356 230.63 624.728 230.63C625.78 230.63 626.657 230.774 627.359 231.063C628.06 231.352 628.627 231.754 629.061 232.27C629.494 232.785 629.793 233.404 629.958 234.126C630.144 234.828 630.237 235.612 630.237 236.478V247H627.606V236.169C627.606 235.179 627.317 234.395 626.74 233.817C626.162 233.239 625.368 232.95 624.357 232.95C623.552 232.95 622.851 233.074 622.253 233.322C621.675 233.569 621.19 233.92 620.798 234.374C620.406 234.828 620.107 235.364 619.901 235.983C619.715 236.581 619.622 237.242 619.622 237.964V247H616.992V231.001ZM636.106 239.14C636.106 239.882 636.199 240.615 636.385 241.337C636.591 242.038 636.89 242.668 637.282 243.225C637.695 243.782 638.21 244.225 638.829 244.555C639.469 244.885 640.212 245.05 641.057 245.05C641.944 245.05 642.698 244.875 643.316 244.524C643.935 244.174 644.441 243.72 644.833 243.163C645.225 242.585 645.503 241.935 645.668 241.213C645.854 240.491 645.947 239.759 645.947 239.016C645.947 238.232 645.854 237.479 645.668 236.757C645.483 236.014 645.184 235.364 644.771 234.807C644.379 234.25 643.863 233.807 643.224 233.477C642.584 233.126 641.81 232.95 640.903 232.95C640.016 232.95 639.262 233.126 638.644 233.477C638.025 233.827 637.53 234.291 637.158 234.869C636.787 235.447 636.519 236.107 636.354 236.85C636.189 237.592 636.106 238.356 636.106 239.14ZM648.484 247H645.854V244.834H645.792C645.359 245.721 644.678 246.36 643.75 246.752C642.821 247.144 641.8 247.34 640.686 247.34C639.448 247.34 638.365 247.113 637.437 246.66C636.529 246.206 635.766 245.597 635.147 244.834C634.548 244.07 634.094 243.183 633.785 242.172C633.476 241.162 633.321 240.089 633.321 238.954C633.321 237.819 633.465 236.747 633.754 235.736C634.064 234.725 634.517 233.848 635.116 233.105C635.735 232.342 636.498 231.744 637.406 231.31C638.334 230.856 639.407 230.63 640.624 230.63C641.037 230.63 641.48 230.671 641.955 230.753C642.429 230.836 642.904 230.98 643.378 231.187C643.853 231.372 644.296 231.63 644.709 231.96C645.142 232.27 645.503 232.662 645.792 233.136H645.854V224.904H648.484V247ZM652.686 224.904H655.316V247H652.686V224.904ZM670.501 237.469C670.46 236.85 670.315 236.262 670.068 235.705C669.841 235.148 669.521 234.673 669.109 234.281C668.717 233.869 668.242 233.549 667.685 233.322C667.149 233.074 666.55 232.95 665.89 232.95C665.209 232.95 664.59 233.074 664.033 233.322C663.497 233.549 663.033 233.869 662.641 234.281C662.249 234.694 661.939 235.179 661.712 235.736C661.485 236.272 661.351 236.85 661.31 237.469H670.501ZM673.039 241.925C672.688 243.72 671.914 245.071 670.718 245.979C669.521 246.887 668.015 247.34 666.2 247.34C664.92 247.34 663.806 247.134 662.857 246.721C661.929 246.309 661.145 245.731 660.505 244.989C659.866 244.246 659.381 243.359 659.051 242.327C658.742 241.296 658.566 240.171 658.525 238.954C658.525 237.737 658.711 236.623 659.082 235.612C659.453 234.601 659.969 233.724 660.629 232.981C661.31 232.239 662.104 231.661 663.012 231.248C663.941 230.836 664.951 230.63 666.045 230.63C667.468 230.63 668.644 230.929 669.573 231.527C670.522 232.105 671.275 232.847 671.832 233.755C672.409 234.663 672.801 235.653 673.008 236.726C673.235 237.799 673.327 238.82 673.286 239.79H661.31C661.289 240.491 661.372 241.162 661.558 241.801C661.743 242.42 662.042 242.977 662.455 243.472C662.868 243.947 663.394 244.328 664.033 244.617C664.673 244.906 665.426 245.05 666.292 245.05C667.406 245.05 668.314 244.793 669.016 244.277C669.738 243.761 670.212 242.977 670.439 241.925H673.039ZM675.92 231.001H678.396V234.374H678.458C679.097 233.074 679.881 232.115 680.81 231.496C681.738 230.877 682.914 230.588 684.337 230.63V233.415C683.285 233.415 682.388 233.559 681.645 233.848C680.902 234.137 680.304 234.56 679.85 235.117C679.396 235.674 679.066 236.355 678.86 237.159C678.654 237.943 678.55 238.851 678.55 239.882V247H675.92V231.001Z" fill="#D4FF7A"/>
<defs>
<clipPath id="clip0_2014_177">
<rect width="72.2368" height="15.7435" fill="white" transform="translate(877 21)"/>
</clipPath>
</defs>
</svg>
